<?xml version="1.0" standalone="no"?>
<!DOCTYPE svg PUBLIC "-//W3C//DTD SVG 20010904//EN"
 "http://www.w3.org/TR/2001/REC-SVG-20010904/DTD/svg10.dtd">
<svg version="1.0" xmlns="http://www.w3.org/2000/svg"
 width="1024.000000pt" height="1024.000000pt" viewBox="0 0 1024.000000 1024.000000"
 preserveAspectRatio="xMidYMid meet">

<g transform="translate(0.000000,1024.000000) scale(0.100000,-0.100000)"
fill="#000000" stroke="none">
<path d="M2695 6665 c-53 -52 -16 -145 57 -145 22 0 42 9 63 30 l32 31 284
-11 284 -10 67 -73 c70 -75 76 -85 56 -105 -9 -9 -21 -3 -53 28 l-41 40 -134
5 c-114 5 -136 8 -143 23 -15 28 -39 42 -74 42 -46 0 -73 -30 -73 -80 0 -80
83 -110 133 -50 25 30 27 30 124 30 124 0 168 -12 188 -50 8 -16 15 -31 15
-34 0 -8 -81 -66 -91 -66 -5 0 -27 25 -50 55 -33 44 -47 55 -70 55 -32 0 -37
-15 -14 -46 8 -12 22 -48 31 -81 16 -58 18 -61 53 -67 20 -3 48 -6 64 -6 15 0
27 -4 27 -9 0 -17 -63 -31 -136 -31 -83 0 -76 -9 -78 95 l-1 50 -227 3 c-228
2 -228 2 -243 26 -33 51 -109 55 -134 7 -49 -91 55 -164 129 -91 l31 30 197
-6 c133 -4 199 -10 204 -17 9 -15 10 -60 2 -81 -8 -21 -82 -21 -339 -1 -104 8
-247 15 -317 15 l-127 0 -16 30 c-31 60 -107 70 -157 20 -27 -28 -30 -36 -25
-73 12 -89 100 -116 164 -52 l35 35 172 0 c157 -1 567 -37 582 -53 3 -3 -2
-19 -10 -36 -9 -16 -16 -37 -16 -45 0 -23 -33 -28 -138 -22 l-97 5 85 -19 c47
-10 100 -19 118 -20 28 0 34 5 48 40 35 88 124 78 173 -18 19 -38 48 -167 53
-237 3 -37 5 -40 43 -48 124 -26 326 -66 361 -72 l42 -6 6 58 c13 105 63 240
105 277 27 24 43 29 101 30 78 2 140 -68 191 -217 55 -161 72 -364 59 -742 -5
-137 -3 -153 15 -184 28 -48 62 -70 125 -82 30 -5 198 -13 372 -16 339 -6 355
-4 398 42 l23 24 -24 5 c-13 3 -58 7 -99 10 -200 15 -551 64 -566 79 -2 2 23
37 56 78 72 89 100 143 100 192 0 46 -49 196 -124 377 -30 74 -53 136 -52 138
2 2 12 -1 23 -7 10 -5 63 -19 118 -31 140 -30 409 -104 545 -150 63 -21 149
-45 191 -54 129 -26 402 -39 709 -33 284 6 408 18 495 50 48 17 225 105 225
112 0 2 -51 -20 -112 -50 -69 -33 -138 -59 -178 -66 -95 -17 -746 -24 -900
-10 -191 18 -350 51 -350 73 0 4 -10 8 -22 8 -17 0 -19 3 -9 9 21 13 3 32 -25
25 -14 -4 -24 -2 -24 5 0 6 -7 11 -16 11 -14 0 -15 -2 -3 -16 12 -15 11 -16
-11 -9 -14 4 -26 11 -28 15 -2 4 -11 6 -20 3 -25 -6 -75 15 -66 28 5 8 8 8 14
0 3 -7 13 -9 21 -6 20 7 19 60 -1 60 -8 0 -24 18 -35 39 -21 41 -32 50 -77 66
-19 6 -26 14 -22 25 4 10 0 15 -10 15 -9 0 -25 13 -34 30 -9 16 -23 30 -30 30
-7 0 -10 4 -7 10 3 5 -3 15 -15 22 -24 15 -26 28 -4 28 9 0 14 6 11 13 -2 6
-13 11 -25 11 -12 -1 -20 3 -19 8 3 14 -201 94 -284 111 -158 33 -278 40 -448
28 -177 -13 -229 -10 -311 21 -101 39 -200 130 -200 184 0 19 52 70 134 132
33 24 51 29 40 10 -4 -8 -3 -10 2 -5 5 5 9 14 9 19 0 6 6 13 14 16 8 3 11 0 7
-7 -5 -7 -1 -8 10 -4 12 4 14 8 6 11 -10 3 -10 7 0 20 11 13 11 15 -2 8 -8 -4
-1 4 15 19 17 14 38 24 47 21 10 -2 15 1 12 9 -6 13 -40 9 -50 -6 -3 -5 -9 -9
-14 -9 -16 0 23 41 48 51 35 13 25 45 -12 41 -15 -2 -26 0 -23 5 3 4 -55 10
-129 11 -130 4 -134 3 -134 -17 0 -20 6 -21 83 -22 45 -1 107 -4 137 -7 l55
-7 -80 -49 c-44 -27 -87 -55 -95 -62 -33 -26 -59 -26 -83 1 -12 14 -48 53 -81
87 l-58 62 -212 7 c-116 4 -248 8 -293 8 -62 1 -83 4 -83 14 0 8 -10 23 -23
35 -32 30 -81 29 -112 -3z m86 -36 c18 -18 19 -23 6 -42 -27 -41 -77 -29 -77
17 0 46 37 59 71 25z m337 -161 c16 -16 15 -40 -1 -62 -13 -17 -15 -17 -45 -2
-39 20 -45 31 -32 56 12 23 59 27 78 8z m-420 -160 c36 -36 -6 -91 -46 -62
-26 18 -28 37 -6 58 19 19 36 20 52 4z m-380 -120 c7 -7 12 -25 12 -40 0 -51
-81 -50 -88 1 -7 42 46 69 76 39z m2442 -247 c0 -6 -4 -13 -10 -16 -5 -3 -10
-2 -10 4 0 5 -8 12 -17 14 -11 3 -7 5 10 6 15 0 27 -3 27 -8z m-1105 -55 l150
-44 -2 -47 c-1 -26 -4 -49 -6 -52 -8 -7 -45 14 -120 70 -38 27 -96 65 -130 83
-34 19 -57 33 -52 33 6 0 78 -20 160 -43z"/>
<path d="M4436 6599 c-60 -4 -114 -13 -120 -19 -8 -9 17 -10 104 -3 170 12
596 6 803 -12 271 -23 538 -69 613 -105 88 -43 295 -199 393 -296 73 -73 121
-103 121 -76 0 10 -95 102 -190 183 -102 88 -224 175 -293 208 -190 93 -939
156 -1431 120z"/>
<path d="M4005 6568 c-44 -17 -84 -35 -90 -41 -7 -7 -4 -7 10 -2 116 44 221
59 250 35 25 -21 54 -135 65 -256 13 -136 8 -150 -51 -156 -62 -6 -83 9 -87
62 -2 26 -11 53 -22 64 -26 27 -102 38 -209 30 -105 -7 -131 -22 -131 -74 0
-49 52 -67 226 -80 76 -5 118 -12 136 -24 21 -14 41 -16 114 -11 267 20 558
-74 854 -274 150 -101 220 -142 200 -116 -8 11 -28 31 -44 44 -15 14 -34 31
-42 38 -7 8 -57 43 -111 78 -54 36 -107 72 -118 81 -11 8 -30 20 -42 25 -13 5
-23 13 -23 17 0 5 -16 12 -35 15 -19 3 -54 21 -78 40 -23 19 -52 38 -64 41
-11 4 -27 13 -33 21 -15 18 -11 19 31 1 24 -10 110 -15 299 -20 475 -12 979
-39 1239 -68 88 -9 110 -15 149 -42 56 -37 97 -111 114 -203 16 -86 32 -81 25
6 -9 105 -63 198 -139 237 -19 10 -76 20 -142 25 -61 5 -174 16 -251 24 -165
18 -385 30 -815 45 -309 11 -370 19 -370 46 0 16 -60 29 -98 21 -15 -3 -39 -3
-55 0 -25 5 -26 6 -10 19 17 12 16 13 -5 14 -12 0 -21 3 -20 8 5 13 -83 120
-102 125 -11 3 -20 13 -20 22 0 14 -6 16 -31 11 -26 -5 -32 -2 -37 16 -5 21
-6 21 -13 2 -6 -17 -8 -16 -18 9 -11 28 -31 37 -31 13 0 -8 10 -60 21 -117 22
-104 25 -136 15 -147 -10 -9 -17 4 -31 55 -7 26 -14 41 -14 33 -1 -8 -13 3
-27 25 -14 22 -24 33 -23 25 5 -46 -15 -51 -23 -5 -3 13 -1 22 3 19 15 -9 10
5 -11 34 -15 20 -21 46 -23 90 -1 34 -5 62 -9 62 -4 0 -17 20 -29 45 l-23 45
-60 0 c-44 -1 -84 -10 -141 -32z m795 -398 c0 -5 -9 -10 -20 -10 -11 0 -20 5
-20 10 0 6 9 10 20 10 11 0 20 -4 20 -10z"/>
<path d="M3865 6550 c-3 -5 -1 -10 4 -10 6 0 11 5 11 10 0 6 -2 10 -4 10 -3 0
-8 -4 -11 -10z"/>
<path d="M3880 6510 c-9 -6 -10 -10 -3 -10 6 0 15 5 18 10 8 12 4 12 -15 0z"/>
<path d="M4450 6422 c0 -5 35 -9 78 -9 54 -1 68 1 47 7 -41 11 -125 12 -125 2z"/>
<path d="M6377 6187 c-6 -16 16 -72 33 -82 19 -12 23 2 10 39 -13 41 -35 63
-43 43z"/>
<path d="M6475 6080 l-20 -9 20 0 c11 0 27 4 35 9 13 9 13 10 0 9 -8 0 -24 -4
-35 -9z"/>
<path d="M1979 6001 c-21 -22 -29 -39 -29 -66 0 -50 44 -95 94 -95 27 0 43 8
69 35 l34 35 204 0 c202 0 204 0 214 -22 6 -13 27 -32 47 -43 35 -19 38 -19
72 -2 20 9 42 28 48 42 9 21 18 25 54 25 38 0 55 -9 143 -75 54 -41 106 -75
115 -75 25 0 19 27 -10 47 -14 10 -61 46 -105 81 -76 59 -84 62 -135 62 -31 0
-54 4 -54 10 0 6 -11 22 -25 35 -18 19 -35 25 -67 25 -47 -1 -68 -12 -87 -47
-12 -23 -14 -23 -216 -23 l-204 0 -16 30 c-30 59 -98 68 -146 21z m102 -42 c8
-16 8 -28 0 -46 -23 -50 -100 -7 -80 45 11 30 64 31 80 1z m606 -8 c23 -47
-29 -90 -68 -55 -23 21 -24 47 -3 69 22 22 56 15 71 -14z"/>
<path d="M3159 5949 c-34 -49 -64 -199 -40 -199 5 0 15 25 21 55 6 30 19 64
29 77 18 21 19 21 44 5 26 -17 40 -52 53 -134 5 -33 11 -42 31 -46 24 -4 25
-4 18 42 -10 75 -45 195 -62 213 -26 29 -68 23 -94 -13z"/>
<path d="M3935 5857 c-47 -50 -80 -137 -91 -241 -6 -57 -9 -66 -27 -66 -11 0
-156 29 -321 64 -166 36 -382 81 -481 101 -99 19 -214 42 -255 50 -98 20 -251
45 -270 44 -29 -1 -3 -8 1034 -286 236 -63 216 -51 216 -123 0 -33 -4 -60 -10
-60 -18 0 -251 68 -375 110 -66 22 -121 40 -122 40 -2 0 -3 -9 -3 -20 0 -13
12 -26 35 -37 36 -17 46 -33 20 -33 -10 0 -15 -10 -15 -28 0 -43 -29 -144 -47
-164 -9 -10 -22 -18 -30 -18 -16 0 -52 74 -53 107 0 19 4 22 29 17 27 -6 28
-4 35 42 7 57 1 67 -23 35 -11 -14 -25 -22 -37 -19 -16 3 -20 15 -26 72 -9 90
-18 96 -18 11 l0 -68 -40 7 c-22 3 -106 27 -186 52 -81 25 -148 44 -150 42 -1
-2 61 -28 139 -57 223 -84 247 -96 247 -123 0 -13 7 -45 15 -72 8 -27 13 -51
11 -53 -2 -2 -34 8 -72 21 -37 14 -70 23 -72 22 -4 -4 6 -9 443 -227 171 -85
341 -168 379 -184 41 -18 86 -47 110 -71 49 -49 75 -64 114 -64 37 0 63 29 96
104 144 328 116 940 -49 1085 -54 47 -97 43 -150 -12z m140 -117 c33 -52 52
-135 67 -293 9 -94 9 -130 1 -138 -23 -23 -39 1 -68 102 -27 92 -30 118 -28
224 1 108 0 117 -12 94 -8 -15 -20 -68 -26 -118 l-13 -91 -30 0 c-60 0 -76 10
-76 44 0 51 27 129 60 174 25 35 36 42 65 42 30 0 38 -6 60 -40z m-679 -370
c38 -16 150 -67 249 -113 l180 -84 7 -43 c4 -25 4 -48 -1 -53 -5 -5 -87 18
-187 51 -99 33 -192 63 -209 66 -41 7 111 -67 273 -134 127 -52 133 -56 142
-90 12 -44 13 -90 1 -90 -5 0 -116 44 -247 98 -132 54 -265 109 -296 121 -32
13 -58 27 -58 32 0 5 9 23 20 41 24 39 54 169 47 203 -2 14 -1 25 3 25 5 0 39
-13 76 -30z m743 -114 c9 -11 10 -43 1 -133 -24 -259 -102 -371 -102 -145 1
71 15 135 53 239 21 56 29 62 48 39z m-194 -133 c26 -12 36 -24 39 -47 23
-153 29 -185 41 -210 16 -32 12 -46 -14 -46 -55 0 -108 109 -126 263 -8 65 -2
69 60 40z"/>
<path d="M4865 5890 c3 -5 8 -10 11 -10 2 0 4 5 4 10 0 6 -5 10 -11 10 -5 0
-7 -4 -4 -10z"/>
<path d="M2795 5659 c61 -22 139 -50 175 -61 489 -156 490 -156 490 -113 0 14
-1 25 -2 25 -2 0 -100 25 -218 55 -264 68 -539 135 -548 134 -4 0 43 -18 103
-40z"/>
<path d="M5040 5679 c0 -5 5 -7 10 -4 6 3 10 8 10 11 0 2 -4 4 -10 4 -5 0 -10
-5 -10 -11z"/>
<path d="M6915 5620 l-30 -20 38 7 c35 5 38 4 53 -32 34 -83 46 -183 40 -340
-7 -159 -26 -267 -53 -298 -16 -17 -16 -17 8 -9 33 12 46 43 64 153 29 183 13
423 -37 522 -21 42 -39 46 -83 17z"/>
<path d="M2422 5607 c-27 -29 -29 -86 -4 -116 9 -12 34 -24 54 -28 32 -5 41
-1 68 26 l32 31 152 0 c192 0 276 8 276 26 0 11 -40 14 -212 14 l-213 0 -28
35 c-23 29 -34 35 -66 35 -26 0 -44 -7 -59 -23z m94 -42 c16 -24 16 -27 -1
-45 -24 -26 -50 -25 -69 2 -20 28 -20 33 0 52 23 23 51 19 70 -9z"/>
<path d="M6860 5590 c-9 -6 -10 -10 -3 -10 6 0 15 5 18 10 8 12 4 12 -15 0z"/>
<path d="M4591 5558 c0 -7 12 -37 27 -67 l27 -55 150 -53 c286 -102 435 -164
435 -182 0 -4 -44 -46 -97 -92 l-97 -84 38 -3 c34 -3 52 6 145 69 l106 71 105
-8 c171 -14 817 -11 956 5 107 12 123 12 150 -2 42 -22 134 -106 134 -123 0
-17 29 -18 51 -1 13 10 4 22 -68 89 l-83 77 -52 -3 c-29 -2 -96 -9 -148 -15
-99 -13 -380 -12 -380 2 0 4 -12 7 -26 7 -14 0 -23 4 -20 8 3 5 -27 10 -67 10
-173 3 -436 25 -505 43 -40 10 -112 36 -160 58 -340 153 -417 186 -492 213
-47 17 -89 35 -94 39 -15 13 -36 11 -35 -3z"/>
<path d="M5078 5563 c7 -3 16 -2 19 1 4 3 -2 6 -13 5 -11 0 -14 -3 -6 -6z"/>
<path d="M6889 5531 c-13 -10 -94 -64 -179 -121 -163 -108 -207 -141 -128 -97
54 31 306 202 328 223 21 20 7 17 -21 -5z"/>
<path d="M6929 5463 c0 -5 0 -33 1 -63 2 -83 -34 -305 -51 -316 -11 -6 -12
-24 -1 -24 40 1 82 155 82 306 0 86 -3 104 -15 104 -8 0 -15 -3 -16 -7z"/>
<path d="M6028 5203 c7 -3 16 -2 19 1 4 3 -2 6 -13 5 -11 0 -14 -3 -6 -6z"/>
<path d="M4643 4985 c-24 -30 -43 -57 -43 -60 0 -13 59 -25 211 -44 614 -77
1370 -65 1912 29 108 19 227 54 227 67 0 3 -7 3 -15 -1 -31 -12 -214 -45 -362
-66 -115 -16 -159 -18 -185 -11 -28 9 -28 10 -5 7 24 -3 32 4 28 27 0 4 6 7
15 7 8 0 13 4 10 9 -3 5 -189 6 -423 3 -402 -4 -711 5 -983 29 -140 12 -297
37 -321 50 -10 5 -19 9 -21 9 -2 0 -22 -25 -45 -55z"/>
<path d="M4208 4807 c-29 -59 -79 -118 -111 -132 l-32 -13 37 -7 c56 -11 420
-1 442 11 14 9 -2 12 -75 17 -52 3 -107 10 -124 17 -41 16 -84 58 -105 102
l-17 37 -15 -32z"/>
<path d="M6484 4828 c-2 -3 11 -18 28 -33 l33 -28 130 6 c71 3 163 13 203 22
76 18 93 16 72 -10 -25 -30 -1 -27 30 3 36 36 39 56 8 49 -200 -47 -313 -56
-341 -28 -9 9 -3 10 23 6 19 -3 29 -3 22 1 -6 3 -10 9 -7 14 3 4 -40 7 -96 7
-55 -1 -103 -5 -105 -9z"/>
<path d="M6878 4833 c6 -2 18 -2 25 0 6 3 1 5 -13 5 -14 0 -19 -2 -12 -5z"/>
<path d="M6820 4730 c-96 -4 -109 -6 -77 -14 50 -11 194 -3 209 12 9 9 9 12
-2 10 -8 -1 -67 -4 -130 -8z"/>
<path d="M6245 4148 c-2 -7 -5 -22 -7 -32 -2 -12 -17 -24 -38 -31 -45 -15 -69
-58 -50 -89 12 -19 11 -20 -2 -8 -19 15 -68 6 -68 -12 0 -7 11 -18 25 -24 14
-6 25 -16 25 -22 0 -5 -11 -10 -25 -10 -18 0 -25 -5 -25 -20 0 -12 10 -25 25
-32 29 -13 33 -28 7 -28 -18 0 -42 -18 -42 -31 0 -4 14 -12 30 -18 36 -12 39
-31 5 -31 -35 0 -35 -37 1 -46 31 -8 29 -38 -4 -42 -31 -5 -30 -42 2 -42 16 0
31 -12 50 -40 15 -23 34 -40 45 -40 22 0 37 -17 43 -45 5 -31 31 -23 40 13 11
40 27 41 35 2 3 -20 12 -30 23 -30 12 0 21 10 25 30 8 38 33 39 37 3 4 -40 34
-42 43 -4 9 44 33 47 41 6 8 -45 30 -45 38 -1 5 24 14 37 29 42 33 10 55 33
62 65 4 16 11 26 16 23 14 -8 59 4 59 16 0 6 -13 10 -29 10 -16 0 -31 6 -34
13 -8 23 5 37 34 37 42 0 38 28 -3 32 -27 2 -34 8 -36 28 -3 24 0 26 33 25 23
-1 35 3 35 12 0 8 -13 13 -35 13 -33 0 -35 2 -35 33 0 17 -3 49 -6 70 l-7 37
42 0 c22 0 41 4 41 9 0 4 -17 8 -37 7 -26 -1 -37 3 -35 12 1 6 -2 12 -8 12 -6
0 -10 6 -10 14 0 35 -29 41 -184 38 l-151 -3 3 46 c3 29 0 45 -7 45 -7 0 -13
-6 -16 -12z m97 -95 c241 14 238 16 238 -212 0 -93 -4 -181 -10 -196 -17 -43
-62 -55 -218 -55 -148 0 -154 2 -165 50 -12 49 -10 394 2 398 6 2 8 9 5 15 -5
8 -3 9 4 2 7 -7 58 -7 144 -2z"/>
<path d="M6255 3978 c-26 -31 -27 -36 -23 -120 2 -48 6 -90 9 -92 3 -3 31 -8
62 -12 55 -7 56 -6 52 17 -7 35 2 55 33 75 l27 17 -23 -25 c-20 -23 -23 -34
-20 -104 l3 -79 30 0 c30 0 30 1 30 55 0 30 -3 74 -6 97 -6 34 -4 43 10 46 11
3 10 5 -6 6 -12 1 -29 14 -41 32 -12 19 -22 27 -26 20 -4 -6 -3 -11 3 -11 5 0
9 -9 8 -20 -2 -25 -13 -26 -26 -3 -9 17 -10 17 -28 0 -11 -9 -28 -17 -39 -16
-14 0 -15 2 -4 6 24 9 54 45 55 66 2 25 -21 47 -43 41 -12 -4 -10 1 7 15 22
20 22 21 3 21 -11 0 -32 -14 -47 -32z m55 -42 c0 -2 -7 -7 -16 -10 -8 -3 -12
-2 -9 4 6 10 25 14 25 6z m-20 -107 c0 -6 7 -9 15 -5 9 3 15 0 15 -9 0 -8 -9
-15 -20 -15 -11 0 -20 6 -20 14 0 8 -6 17 -12 19 -8 3 -6 6 5 6 9 1 17 -4 17
-10z"/>
<path d="M6396 3994 c-3 -9 -6 -29 -6 -46 0 -22 4 -29 15 -25 21 9 55 -24 55
-53 0 -14 -3 -67 -6 -117 -6 -88 -5 -93 13 -93 11 0 29 8 41 18 17 15 20 26
16 58 -13 100 -14 103 -32 98 -9 -2 -7 1 6 7 24 13 28 24 12 34 -5 3 -10 15
-10 26 0 11 -4 18 -8 15 -5 -3 -15 6 -22 19 -7 14 -21 27 -32 31 -10 3 -18 14
-18 25 0 23 -15 25 -24 3z"/>
<path d="M6470 3960 c0 -5 5 -10 11 -10 5 0 7 5 4 10 -3 6 -8 10 -11 10 -2 0
-4 -4 -4 -10z"/>
<path d="M6240 3742 c0 -4 16 -16 35 -26 19 -11 35 -27 35 -36 0 -17 33 -33
44 -22 11 11 6 73 -6 76 -30 9 -108 15 -108 8z"/>
<path d="M6320 4134 c-11 -29 -6 -44 16 -44 9 0 14 11 14 35 0 41 -16 46 -30
9z"/>
<path d="M6400 4130 c0 -20 5 -30 15 -30 8 0 15 6 15 14 0 8 3 21 6 30 4 12 0
16 -15 16 -17 0 -21 -6 -21 -30z"/>
<path d="M6496 4144 c-10 -27 -7 -44 9 -44 10 0 15 10 15 30 0 32 -14 40 -24
14z"/>
<path d="M7380 4117 c-55 -36 -73 -78 -74 -166 -1 -71 2 -81 28 -115 44 -58
73 -66 250 -66 145 0 156 -1 166 -20 8 -14 8 -26 0 -40 -9 -17 -8 -20 9 -20
20 0 31 18 31 54 0 42 -15 46 -179 46 -129 0 -162 3 -190 18 -55 28 -73 61
-79 145 -5 82 10 125 56 164 35 29 24 29 -18 0z"/>
<path d="M6724 4116 c-3 -7 -4 -42 -2 -77 l3 -64 97 -3 98 -3 2 -227 3 -227
40 -3 c21 -2 54 -1 72 3 l33 6 -2 92 c-1 75 -2 83 -7 42 -6 -44 -7 -47 -15
-25 -11 31 -57 72 -73 65 -10 -3 -13 24 -13 119 0 68 -3 138 -6 156 l-7 32
-98 -5 c-55 -2 -96 -1 -93 4 3 5 2 36 -2 69 -6 57 -18 76 -30 46z"/>
<path d="M5413 4084 c-2 -6 -3 -40 -1 -75 l3 -64 208 0 c219 0 226 -1 227 -47
0 -38 -36 -46 -240 -50 l-195 -4 -3 -189 c-1 -104 1 -192 5 -196 11 -10 440 9
485 21 73 21 108 76 108 171 0 63 -14 102 -49 133 l-21 19 24 22 c65 60 52
204 -21 252 -24 16 -55 18 -276 18 -173 0 -251 -3 -254 -11z m428 -374 c20
-11 25 -45 10 -69 -12 -19 -81 -30 -188 -31 l-93 0 0 50 0 49 83 4 c45 1 101
4 125 5 24 1 52 -3 63 -8z"/>
<path d="M4848 4081 c-64 -13 -117 -56 -146 -119 -26 -54 -27 -65 -27 -217 0
-148 2 -164 23 -208 27 -53 86 -95 155 -108 23 -4 107 -4 187 2 121 8 153 14
195 34 64 31 99 86 116 179 15 88 7 279 -13 327 -22 50 -74 96 -124 108 -47
12 -307 13 -366 2z m320 -175 c23 -30 36 -157 23 -225 -14 -70 -30 -79 -157
-87 -62 -4 -123 -4 -138 0 -45 11 -59 55 -54 177 5 154 6 155 200 158 102 1
107 0 126 -23z"/>
<path d="M4208 4073 c-193 -4 -182 3 -176 -108 l3 -60 112 -3 113 -3 2 -242 3
-242 30 -3 c16 -2 53 -1 82 3 l53 6 0 232 c0 129 5 239 10 247 7 11 32 16 94
19 49 2 89 8 95 15 11 13 71 132 71 140 0 6 -115 5 -492 -1z"/>
<path d="M3815 4048 c-2 -7 -5 -111 -7 -231 l-3 -219 -28 -24 c-26 -22 -36
-24 -146 -24 -176 0 -165 -17 -169 269 l-3 231 -82 -6 c-45 -4 -83 -8 -85 -9
-1 -1 -3 -110 -4 -241 -1 -221 1 -242 19 -284 27 -59 56 -88 112 -113 42 -18
58 -19 206 -13 88 3 177 11 199 17 21 6 58 29 82 51 67 62 74 97 74 375 l0
233 -80 0 c-56 0 -82 -4 -85 -12z"/>
<path d="M2768 4025 c-31 -17 -64 -70 -181 -290 -47 -88 -110 -207 -141 -264
-31 -58 -56 -111 -56 -118 0 -11 18 -12 93 -7 50 3 97 11 104 18 6 6 66 118
133 249 67 130 127 237 134 237 12 0 106 -180 106 -204 0 -10 -22 -15 -85 -18
-95 -5 -93 -3 -145 -100 -21 -40 -27 -58 -18 -59 7 0 85 0 173 1 l160 1 25
-48 25 -48 95 3 c52 1 96 4 98 6 10 11 -283 598 -313 626 -23 21 -37 25 -103
28 -54 1 -85 -2 -104 -13z"/>
<path d="M7615 4023 c-60 -2 -114 -9 -120 -14 -12 -13 342 -2 365 12 15 8 -8
9 -245 2z"/>
<path d="M7148 4002 c-33 -2 -58 -8 -58 -14 0 -7 17 -9 53 -4 28 3 64 6 80 6
15 0 27 4 27 9 0 5 -10 8 -22 7 -13 0 -49 -2 -80 -4z"/>
<path d="M6630 3910 c0 -5 14 -10 30 -10 17 0 30 5 30 10 0 6 -13 10 -30 10
-16 0 -30 -4 -30 -10z"/>
<path d="M7320 3601 c0 -39 3 -72 8 -74 15 -9 434 13 450 23 12 8 -42 10 -200
5 l-218 -6 0 45 c0 54 -8 76 -26 76 -11 0 -14 -17 -14 -69z"/>
<path d="M7438 3588 c5 -5 16 -8 23 -6 8 3 3 7 -10 11 -17 4 -21 3 -13 -5z"/>
<path d="M7498 3593 c7 -3 16 -2 19 1 4 3 -2 6 -13 5 -11 0 -14 -3 -6 -6z"/>
<path d="M7166 3370 c-16 -5 -33 -15 -37 -22 -13 -20 -11 -132 3 -146 7 -7 37
-12 68 -12 31 0 61 5 68 12 17 17 16 142 -1 157 -20 16 -68 21 -101 11z m84
-45 c5 -14 6 -42 2 -62 -6 -31 -14 -39 -40 -47 -45 -13 -62 5 -62 65 0 53 14
68 63 69 20 0 30 -6 37 -25z"/>
<path d="M7040 3323 c0 -78 -11 -81 -66 -19 -27 31 -52 56 -56 56 -5 0 -8 -40
-8 -90 0 -53 4 -90 10 -90 6 0 10 19 10 43 0 72 12 75 65 13 26 -31 51 -56 56
-56 5 0 9 43 9 95 0 57 -4 95 -10 95 -5 0 -10 -21 -10 -47z"/>
<path d="M6820 3265 c0 -57 4 -95 10 -95 6 0 10 38 10 95 0 57 -4 95 -10 95
-6 0 -10 -38 -10 -95z"/>
<path d="M6570 3256 c0 -82 2 -96 16 -96 13 0 16 7 12 33 -3 17 -2 41 2 52 7
18 9 17 26 -12 24 -41 45 -42 69 -1 17 29 19 30 26 12 4 -10 8 -31 8 -46 1
-16 6 -28 11 -28 6 0 10 37 10 91 0 106 -10 111 -53 31 -16 -29 -32 -52 -36
-52 -4 0 -20 23 -36 52 -47 80 -55 75 -55 -36z"/>
<path d="M6406 3331 c-8 -12 -76 -172 -76 -177 0 -13 31 -1 40 16 8 15 21 20
55 20 34 0 47 -5 55 -20 9 -17 40 -29 40 -15 0 2 -19 45 -41 95 -38 82 -59
105 -73 81z m39 -89 c3 -18 -1 -22 -21 -22 -28 0 -28 0 -12 35 12 27 26 22 33
-13z"/>
<path d="M6152 3318 c-7 -7 -12 -41 -12 -83 0 -42 5 -76 12 -83 13 -13 78 -16
116 -6 40 11 23 24 -33 24 -59 0 -75 13 -75 65 0 50 16 65 70 65 38 0 50 4 50
15 0 12 -13 15 -58 15 -32 0 -63 -5 -70 -12z"/>
<path d="M5802 3228 l3 -93 65 -3 c83 -4 90 5 90 110 0 62 -3 78 -15 78 -11 0
-15 -18 -17 -77 l-3 -77 -33 -8 c-58 -15 -72 1 -72 87 0 45 -4 75 -10 75 -7 0
-10 -33 -8 -92z"/>
<path d="M5587 3303 c-15 -14 -6 -23 22 -23 35 0 41 -13 41 -96 0 -36 4 -64
10 -64 6 0 10 29 10 68 0 76 5 89 39 93 14 2 26 10 29 17 3 9 -16 12 -70 12
-41 0 -78 -3 -81 -7z"/>
<path d="M5275 3204 c-25 -53 -45 -98 -45 -100 0 -12 34 -1 48 15 10 10 34 22
54 25 32 6 41 3 60 -19 22 -26 38 -32 38 -15 0 5 -11 33 -24 62 -13 29 -31 70
-39 91 -25 59 -43 48 -92 -59z m85 -5 c0 -3 -6 -12 -14 -18 -22 -18 -41 11
-25 40 11 22 12 22 25 4 8 -10 14 -22 14 -26z"/>
<path d="M5050 3277 c-28 -14 -39 -59 -19 -83 6 -8 29 -14 53 -14 23 0 51 -6
62 -14 29 -22 4 -40 -63 -46 -82 -7 -83 -30 -1 -30 72 0 108 18 108 55 0 47
-9 55 -65 55 -61 0 -86 18 -60 44 11 10 34 16 66 16 37 0 49 4 49 15 0 19 -93
21 -130 2z"/>
<path d="M4830 3180 l0 -100 39 0 c51 0 101 10 101 21 0 5 -24 9 -54 9 -61 0
-71 11 -60 66 7 40 -3 104 -16 104 -6 0 -10 -43 -10 -100z"/>
<path d="M4393 3263 l-43 -4 0 -100 c0 -81 3 -99 15 -99 8 0 15 3 16 8 0 4 2
17 3 29 4 33 10 36 71 41 62 5 61 4 70 54 6 29 3 40 -14 57 -21 21 -29 22
-118 14z m91 -39 c9 -8 16 -19 16 -24 0 -36 -101 -57 -114 -24 -9 24 2 52 22
57 35 9 61 6 76 -9z"/>
<path d="M4583 3254 c-9 -25 3 -152 17 -169 8 -10 30 -15 62 -15 39 0 54 5 73
25 22 21 25 33 25 100 0 60 -3 75 -15 75 -12 0 -15 -14 -15 -69 0 -81 -13
-101 -65 -101 -44 0 -55 20 -55 104 0 63 -13 87 -27 50z"/>
<path d="M4249 3243 c-8 -10 -27 -37 -42 -60 -15 -24 -29 -43 -32 -43 -2 0
-20 25 -40 55 -53 84 -65 75 -65 -45 0 -82 3 -100 15 -100 10 0 15 10 15 33 0
17 3 42 6 55 6 22 7 22 31 -13 28 -41 54 -45 73 -10 7 14 17 25 22 25 5 0 6 5
2 12 -4 7 -3 8 4 4 7 -4 12 -27 12 -52 0 -32 4 -44 15 -44 12 0 15 18 15 100
0 55 -4 100 -8 100 -5 0 -15 -8 -23 -17z"/>
<path d="M3970 3150 c0 -82 3 -100 15 -100 12 0 15 18 15 100 0 82 -3 100 -15
100 -12 0 -15 -18 -15 -100z"/>
<path d="M3311 3128 c-37 -78 -45 -104 -34 -106 8 -2 25 8 38 22 32 34 95 37
117 5 7 -12 21 -20 31 -18 14 3 10 17 -26 99 -27 60 -49 96 -60 98 -14 3 -29
-21 -66 -100z m83 6 c10 -26 7 -34 -13 -34 -24 0 -33 13 -25 34 8 21 30 21 38
0z"/>
<path d="M3170 3114 c0 -95 2 -105 18 -102 32 6 29 208 -3 208 -12 0 -15 -20
-15 -106z"/>
<path d="M3660 3115 c0 -11 12 -15 44 -15 30 0 46 5 50 15 4 12 -4 15 -44 15
-38 0 -50 -4 -50 -15z"/>
</g>
</svg>
